<?xml version="1.0" encoding="iso-8859-1"?>
<!-- Uploaded to: SVG Repo, www.svgrepo.com, Generator: SVG Repo Mixer Tools -->
<!DOCTYPE svg PUBLIC "-//W3C//DTD SVG 1.1//EN" "http://www.w3.org/Graphics/SVG/1.1/DTD/svg11.dtd">
<svg fill="currentColor"

 version="1.1" id="Capa_1" xmlns="http://www.w3.org/2000/svg" xmlns:xlink="http://www.w3.org/1999/xlink" 
 viewBox="0 0 30.879 30.879"
	 xml:space="preserve">
<g>
	<g>
		<path d="M30.172,7.924l-3.707-4.652c-0.35-0.439-0.882-0.695-1.443-0.695H5.856c-0.563,0-1.095,0.256-1.444,0.695L0.705,7.924
			C0.316,8.41,0,9.053,0,9.938v16.056c0,1.274,1.033,2.308,2.308,2.308H28.57c1.275,0,2.309-1.033,2.309-2.308V9.938
			C30.877,9.163,30.561,8.41,30.172,7.924z M12.187,25.101c0.096,0.021,0.165,0.104,0.165,0.203v0.445
			c0,0.128-0.104,0.23-0.231,0.23H5.29c-0.113,0-0.206-0.092-0.206-0.207v-0.471c0-0.098,0.069-0.183,0.165-0.201l2.414-0.49V22.59
			c-1.948-0.476-3.398-2.219-3.398-4.313c0-1.127,0.433-2.146,1.123-2.929h6.66c0.69,0.785,1.124,1.802,1.124,2.929
			c0,2.095-1.45,3.838-3.397,4.313v2.021L12.187,25.101z M28.135,25.806c0,0.102-0.083,0.184-0.185,0.184H17.74
			c-0.102,0-0.186-0.082-0.186-0.184V25.25c0-0.103,0.084-0.185,0.186-0.185h10.211c0.102,0,0.186,0.082,0.186,0.185v0.556H28.135z
			 M18.691,18.712c-0.284,0-0.461-0.311-0.319-0.557l1.437-2.483c0.142-0.246,0.496-0.246,0.641,0l1.435,2.483
			c0.144,0.248-0.036,0.557-0.321,0.557h-0.602v4.631c0,0.205-0.165,0.37-0.37,0.37h-0.926c-0.203,0-0.369-0.166-0.369-0.37v-4.631
			H18.691z M24.244,18.712c-0.285,0-0.463-0.311-0.32-0.557l1.434-2.483c0.145-0.246,0.5-0.246,0.642,0l1.437,2.483
			c0.143,0.248-0.035,0.557-0.32,0.557h-0.602v4.631c0,0.205-0.168,0.37-0.371,0.37h-0.926c-0.203,0-0.369-0.166-0.369-0.37v-4.631
			H24.244z M1.917,7.884l1.227-1.541h6.77l1-1.359H4.227l0.906-1.137c0.178-0.221,0.44-0.348,0.723-0.348h19.166
			c0.283,0,0.545,0.126,0.723,0.348l0.906,1.137h-6.711l1,1.359h6.795l1.227,1.541H1.917z"/>
	</g>
</g>
</svg>