<?xml version="1.0" encoding="iso-8859-1"?>
<!-- Uploaded to: SVG Repo, www.svgrepo.com, Generator: SVG Repo Mixer Tools -->
<svg 


fill="currentColor"


version="1.1" id="Layer_1" xmlns="http://www.w3.org/2000/svg" xmlns:xlink="http://www.w3.org/1999/xlink" 
	 viewBox="0 0 503.607 503.607" xml:space="preserve">
<g>
	<g>
		<g>
			<path d="M495.213,0H352.525c-4.642,0-8.393,3.752-8.393,8.393v142.689c0,4.642,3.752,8.393,8.393,8.393h58.754v260.197h-16.787
				c-4.642,0-8.393,3.752-8.393,8.393v25.18h-16.787c-4.642,0-8.393,3.752-8.393,8.393v33.574c0,4.642,3.752,8.393,8.393,8.393
				h100.721c4.642,0,8.393-3.752,8.393-8.393v-33.574c0-4.642-3.752-8.393-8.393-8.393h-16.787v-25.18
				c0-4.642-3.752-8.393-8.393-8.393h-16.787V159.475h67.148c4.642,0,8.393-3.752,8.393-8.393V8.393
				C503.607,3.752,499.855,0,495.213,0z M428.066,100.721h-8.393v16.787c0,4.642-3.752,8.393-8.393,8.393
				c-4.642,0-8.393-3.752-8.393-8.393v-25.18V41.967c0-4.642,3.752-8.393,8.393-8.393h16.787c18.516,0,33.574,15.058,33.574,33.574
				C461.639,85.663,446.581,100.721,428.066,100.721z"/>
			<path d="M428.066,50.361h-8.393v33.574h8.393c9.258,0,16.787-7.529,16.787-16.787C444.852,57.89,437.324,50.361,428.066,50.361z"
				/>
			<path d="M75.541,344.131c-9.258,0-16.787,7.529-16.787,16.787s7.529,16.787,16.787,16.787c9.258,0,16.787-7.529,16.787-16.787
				S84.799,344.131,75.541,344.131z"/>
			<path d="M369.311,411.279v-92.328c0-13.883-11.298-25.18-25.18-25.18h-4.18c-3.71,0-7.025-2.493-8.066-6.06l-29.646-102.073
				c-0.101-0.344-0.227-0.688-0.369-1.016c-6.681-15.276-21.773-25.147-38.45-25.147H105.892c-16.678,0-31.769,9.871-38.45,25.147
				c-0.143,0.327-0.269,0.671-0.369,1.016L37.426,287.719c-1.041,3.559-4.356,6.052-8.066,6.052h-4.18
				c-13.883,0-25.18,11.298-25.18,25.18v92.328c0,13.883,11.298,25.18,25.18,25.18v41.967c0,13.883,11.298,25.18,25.18,25.18h16.787
				c13.883,0,25.18-11.298,25.18-25.18v-41.967h184.656v41.967c0,13.883,11.298,25.18,25.18,25.18h16.787
				c13.883,0,25.18-11.298,25.18-25.18v-41.967C358.014,436.459,369.311,425.161,369.311,411.279z M87.527,272.166l20.144-67.148
				c2.115-7.05,8.729-11.969,16.082-11.969h121.806c7.353,0,13.967,4.919,16.082,11.969l20.144,67.148
				c1.544,5.128,0.588,10.542-2.61,14.84c-3.198,4.297-8.108,6.765-13.471,6.765H103.609c-5.363,0-10.274-2.468-13.471-6.765
				C86.939,282.708,85.982,277.294,87.527,272.166z M75.541,478.426c0,4.633-3.76,8.393-8.393,8.393H50.361
				c-4.633,0-8.393-3.76-8.393-8.393v-41.967h33.574V478.426z M75.541,394.492c-18.516,0-33.574-15.058-33.574-33.574
				s15.058-33.574,33.574-33.574s33.574,15.058,33.574,33.574S94.057,394.492,75.541,394.492z M201.443,386.098h-33.574
				c-4.642,0-8.393-3.752-8.393-8.393c0-4.642,3.752-8.393,8.393-8.393h33.574c4.642,0,8.393,3.752,8.393,8.393
				C209.836,382.346,206.084,386.098,201.443,386.098z M218.23,352.525h-67.148c-4.642,0-8.393-3.752-8.393-8.393
				c0-4.642,3.752-8.393,8.393-8.393h67.148c4.642,0,8.393,3.752,8.393,8.393C226.623,348.773,222.871,352.525,218.23,352.525z
				 M327.344,478.426c0,4.633-3.76,8.393-8.393,8.393h-16.787c-4.633,0-8.393-3.76-8.393-8.393v-41.967h33.574V478.426z
				 M293.77,394.492c-18.516,0-33.574-15.058-33.574-33.574s15.058-33.574,33.574-33.574s33.574,15.058,33.574,33.574
				S312.286,394.492,293.77,394.492z"/>
			<polygon points="245.557,209.836 123.751,209.836 103.607,276.984 265.726,276.984 			"/>
			<path d="M293.77,344.131c-9.258,0-16.787,7.529-16.787,16.787s7.529,16.787,16.787,16.787c9.258,0,16.787-7.529,16.787-16.787
				S303.028,344.131,293.77,344.131z"/>
		</g>
	</g>
</g>
</svg>