<?xml version="1.0" encoding="iso-8859-1"?>
<!-- Uploaded to: SVG Repo, www.svgrepo.com, Generator: SVG Repo Mixer Tools -->
<svg height="800px" width="800px" version="1.1" id="Layer_1" xmlns="http://www.w3.org/2000/svg" xmlns:xlink="http://www.w3.org/1999/xlink" 
	 viewBox="0 0 512 512" xml:space="preserve">
<path style="fill:#FFD15C;" d="M493.714,237.714h-52.003c3.418-37.249-25.555-73.143-66.854-73.143
	c-41.348,0-70.268,35.936-66.854,73.143h-33.718v-58.331c0-14.045-15.243-22.871-27.427-15.837
	c-19.899,11.486-45.716-2.514-45.716-26.403c0-23.808,25.755-37.926,45.716-26.403c12.162,7.023,27.427-1.768,27.427-15.837V18.286
	C274.286,8.187,266.099,0,256,0H54.857C24.609,0,0,24.609,0,54.857V256c0,10.099,8.187,18.286,18.286,18.286h52.003
	c-3.427,37.331,25.637,73.143,66.854,73.143c41.405,0,70.261-35.994,66.854-73.143h33.718v58.319
	c0,14.045,15.242,22.871,27.429,15.837c19.896-11.487,45.714,2.516,45.714,26.403c0,23.809-25.756,37.925-45.716,26.405
	c-12.162-7.023-27.427,1.768-27.427,15.837v76.628c0,10.099,8.187,18.286,18.286,18.286h201.143
	C487.391,512,512,487.391,512,457.143V256C512,245.901,503.813,237.714,493.714,237.714z"/>
<path style="fill:#F8B64C;" d="M493.714,237.714h-52.003c3.418-37.249-25.555-73.143-66.854-73.143
	c-41.348,0-70.268,35.936-66.854,73.143h-33.718v-58.331c0-10.639-8.748-18.276-18.286-18.3v189.823
	c3.054,0.007,6.188-0.758,9.143-2.464c19.896-11.487,45.714,2.516,45.714,26.403c0,23.809-25.756,37.925-45.716,26.405
	c-2.953-1.704-6.087-2.471-9.142-2.462V512h201.143C487.391,512,512,487.391,512,457.143V256
	C512,245.901,503.813,237.714,493.714,237.714z"/>
<path style="fill:#54C9EB;" d="M457.143,0H256c-10.099,0-18.286,8.187-18.286,18.286v52.003
	c-37.235-3.423-73.143,25.546-73.143,66.854c0,41.366,35.964,70.273,73.143,66.854v33.718h-58.331
	c-14.045,0-22.871,15.243-15.837,27.429c11.487,19.9-2.517,45.714-26.403,45.714c-23.808,0-37.926-25.755-26.403-45.716
	c7.022-12.164-1.768-27.427-15.837-27.427H18.286C8.187,237.714,0,245.901,0,256v201.143C0,487.391,24.609,512,54.857,512H256
	c10.099,0,18.286-8.187,18.286-18.286V441.7c37.258,3.417,73.143-25.56,73.143-66.855c0-41.353-35.934-70.263-73.143-66.854v-33.705
	h58.331c14.045,0,22.871-15.242,15.837-27.427c-11.509-19.938,2.569-45.716,26.403-45.716c23.809,0,37.925,25.756,26.403,45.716
	c-7.02,12.164,1.768,27.427,15.837,27.427h76.617c10.099,0,18.286-8.187,18.286-18.286V54.857C512,24.609,487.391,0,457.143,0z"/>
<path style="fill:#FFD15C;" d="M274.286,94.903V18.286C274.286,8.187,266.099,0,256,0v113.202
	C265.532,113.176,274.286,105.557,274.286,94.903z"/>
<path style="fill:#169ED9;" d="M457.143,0H256v512c10.099,0,18.286-8.187,18.286-18.286V441.7
	c37.258,3.417,73.143-25.56,73.143-66.855c0-41.353-35.934-70.263-73.143-66.854v-33.705h58.331
	c14.045,0,22.871-15.242,15.837-27.427c-11.509-19.938,2.569-45.716,26.403-45.716c23.809,0,37.925,25.756,26.403,45.716
	c-7.02,12.164,1.768,27.427,15.837,27.427h76.617c10.099,0,18.286-8.187,18.286-18.286V54.857C512,24.609,487.391,0,457.143,0z"/>
</svg>